<svg width="43" height="92" viewBox="0 0 43 92" fill="none" xmlns="http://www.w3.org/2000/svg">
<path d="M15.2693 31.1441C15.2693 40.9891 12.3455 63.223 12.3455 63.223C13.0791 63.682 21.4095 63.6461 21.4095 63.6461C21.4095 63.6461 29.7396 63.682 30.4736 63.223C30.4736 63.223 27.5498 40.9891 27.5498 31.1441H15.2693Z" fill="#B38658"/>
<path d="M12.4325 63.2531L8.36456 67.2289C17.3974 69.0621 25.4208 67.8988 34.4548 67.2289L30.3868 63.2531H12.4325Z" fill="#8E5A2E"/>
<path d="M8.36455 67.2289V70.8039C8.36455 70.8039 4.21181 77.441 0.328219 80.5481C0.328219 80.5481 -1.80459 82.9539 4.80752 84.9301H38.0106C44.6235 82.9539 42.4907 80.5481 42.4907 80.5481C38.6067 77.441 34.4548 70.8039 34.4548 70.8039V67.2289H8.36455Z" fill="#B38658"/>
<path d="M0.537998 80.375C0.468077 80.4328 0.397764 80.4918 0.327842 80.548C0.327842 80.548 -1.80458 82.9539 4.80753 84.9301H38.0107C44.6235 82.9539 42.4907 80.548 42.4907 80.548C42.4208 80.4918 42.3509 80.4328 42.2806 80.375C40.5146 81.1129 35.2817 82.593 21.4095 82.8809C7.53722 82.593 2.30401 81.1129 0.537998 80.375Z" fill="#8E5A2E"/>
<path d="M1.9876 84.5219H40.8306C41.4145 84.5219 41.8849 84.991 41.8849 85.575V88.4441C41.8849 89.0281 41.4145 89.4981 40.8306 89.4981H1.9876C1.404 89.4981 0.934082 89.0281 0.934082 88.4441V85.575C0.934082 84.991 1.404 84.5219 1.9876 84.5219Z" fill="#B38658"/>
<path d="M0.934082 88.4441V90.4758C0.934082 91.0598 1.404 91.5301 1.9876 91.5301H40.8306C41.4145 91.5301 41.8849 91.0598 41.8849 90.4758V88.4441C41.8849 89.0281 41.4145 89.498 40.8306 89.498H1.9876C1.404 89.498 0.934082 89.0281 0.934082 88.4441Z" fill="#8E5A2E"/>
<path d="M10.1571 28.3359C8.51025 29.0379 9.48173 31.1441 9.48173 31.1441H33.3368C33.3368 31.1441 34.3087 29.0379 32.6618 28.3359H10.1571Z" fill="#8E5A2E"/>
<path d="M13.199 22.1168H29.6197V27.7539H13.199V22.1168Z" fill="#B38658"/>
<path d="M13.7544 25.3871C12.8661 25.3871 12.1447 26.9379 12.1447 26.9379H30.6736C30.6736 26.9379 29.9529 25.3871 29.0646 25.3871H13.7544Z" fill="#8E5A2E"/>
<path d="M12.1126 26.7848C11.0337 26.7848 10.1571 28.3359 10.1571 28.3359H32.6618C32.6618 28.3359 31.7848 26.7848 30.7067 26.7848H12.1126Z" fill="#B38658"/>
<path d="M14.6376 20.0668H28.1805V22.1168H14.6376V20.0668Z" fill="#8E5A2E"/>
<path d="M16.2958 0C15.4622 0 14.57 2.16484 13.2708 1.93789C11.972 1.70977 11.447 -0.544141 10.6974 0.348828C9.94814 1.24102 7.65283 2.96797 7.65283 2.96797V4.08281C17.4923 5.40078 25.0317 4.61211 35.1657 4.08281V2.96797C35.1657 2.96797 32.8708 1.24102 32.1216 0.348828C31.3716 -0.544141 30.8466 1.70977 29.5478 1.93789C28.2485 2.16484 27.3567 0 26.5228 0C25.6888 0 24.92 2.04414 24.2712 1.99805C23.6224 1.95313 22.072 0.114063 21.4095 0.114063C20.7466 0.114063 19.4142 1.95313 18.7653 1.99805C18.1165 2.04414 17.1294 0 16.2958 0Z" fill="#8E5A2E"/>
<path d="M7.65283 4.08282C12.4173 5.89181 14.6376 20.1469 14.6376 20.1469H28.1806C28.1806 20.1469 30.4017 5.89181 35.1657 4.08282H7.65283Z" fill="#B38658"/>
</svg>
