<svg width="36" height="55" viewBox="0 0 36 55" fill="none" xmlns="http://www.w3.org/2000/svg">
<path d="M10.1768 31.818L6.84668 34.5769C14.2408 35.3008 20.8088 34.8418 28.2037 34.5769L24.8736 31.818C19.9748 31.818 15.0756 31.818 10.1768 31.818Z" fill="#8E5A2E"/>
<path d="M6.84663 34.5769V37.5027C6.84663 37.5027 3.44741 42.9359 0.268503 45.4789C0.268503 45.4789 -1.47759 47.4488 3.93569 49.066H31.1146C36.5275 47.4488 34.7814 45.4789 34.7814 45.4789C31.6025 42.9359 28.2037 37.5027 28.2037 37.5027V34.5769H6.84663Z" fill="#B38658"/>
<path d="M0.439597 45.3367C0.382565 45.3847 0.325534 45.434 0.268503 45.4789C0.268503 45.4789 -1.47759 47.4488 3.93569 49.066H31.1146C36.5275 47.4488 34.7814 45.4789 34.7814 45.4789C34.7248 45.434 34.6665 45.3847 34.6095 45.3367C33.1634 45.9418 28.8806 47.1527 17.5248 47.3887C6.16967 47.1527 1.88569 45.9418 0.439597 45.3367Z" fill="#8E5A2E"/>
<path d="M1.62676 48.732H33.4225C33.9006 48.732 34.2857 49.1168 34.2857 49.5937V51.943C34.2857 52.4207 33.9006 52.8047 33.4225 52.8047H1.62676C1.14863 52.8047 0.764648 52.4207 0.764648 51.943V49.5937C0.764648 49.1168 1.14863 48.732 1.62676 48.732Z" fill="#B38658"/>
<path d="M0.764648 51.943V53.6059C0.764648 54.084 1.14863 54.4687 1.62676 54.4687H33.4225C33.9006 54.4687 34.2857 54.084 34.2857 53.6059V51.943C34.2857 52.4207 33.9006 52.8047 33.4225 52.8047H1.62676C1.14863 52.8047 0.764648 52.4207 0.764648 51.943Z" fill="#8E5A2E"/>
<path d="M10.6936 19.2469C10.6936 19.2469 11.5275 26.2469 10.1768 31.818H24.8725C23.5217 26.2469 24.3564 19.2469 24.3564 19.2469H10.6936Z" fill="#B38658"/>
<path d="M26.5064 8.98203C26.5064 11.3637 25.5607 13.6488 23.8755 15.3328C22.1916 17.018 19.9064 17.9637 17.5248 17.9637C12.5646 17.9637 8.54352 13.943 8.54352 8.98203C8.54352 4.02188 12.5646 0 17.5248 0C19.9064 0 22.1916 0.946875 23.8755 2.63086C25.5607 4.31484 26.5064 6.6 26.5064 8.98203Z" fill="#B38658"/>
<path d="M9.85757 16.5488H25.1927C25.9396 16.5488 26.5416 17.15 26.5416 17.8977C26.5416 18.6449 25.9396 19.2469 25.1927 19.2469H9.85757C9.10952 19.2469 8.50757 18.6449 8.50757 17.8977C8.50757 17.15 9.10952 16.5488 9.85757 16.5488Z" fill="#8E5A2E"/>
</svg>
