<svg width="39" height="59" viewBox="0 0 39 59" fill="none" xmlns="http://www.w3.org/2000/svg">
<path d="M11.2053 36.7936L7.53851 39.4673C15.6803 40.1692 22.9123 39.7237 31.0545 39.4673L27.3873 36.7936C21.9936 36.7936 16.5995 36.7936 11.2053 36.7936Z" fill="#414141"/>
<path d="M7.53852 39.4673V42.3022C7.53852 42.3022 3.79633 47.5668 0.295551 50.0311C0.295551 50.0311 -1.62671 51.9389 4.33344 53.5068H34.2596C40.2194 51.9389 38.2975 50.0311 38.2975 50.0311C34.7963 47.5668 31.0545 42.3022 31.0545 42.3022V39.4673H7.53852Z" fill="#606060"/>
<path d="M0.484614 49.8936C0.421332 49.9393 0.358442 49.9868 0.295551 50.0311C0.295551 50.0311 -1.62671 51.9389 4.33344 53.5068H34.2596C40.2194 51.9389 38.2975 50.0311 38.2975 50.0311C38.2346 49.9868 38.1713 49.9393 38.1084 49.8936C36.5166 50.4794 31.7995 51.6529 19.2963 51.8819C6.7936 51.6529 2.07641 50.4794 0.484614 49.8936Z" fill="#414141"/>
<path d="M1.79163 53.1826H36.8014C37.3276 53.1826 37.7514 53.5552 37.7514 54.0182V56.2939C37.7514 56.7569 37.3276 57.1295 36.8014 57.1295H1.79163C1.26545 57.1295 0.842407 56.7569 0.842407 56.2939V54.0182C0.842407 53.5552 1.26545 53.1826 1.79163 53.1826Z" fill="#626262"/>
<path d="M0.842407 56.2939V57.9054C0.842407 58.3684 1.26545 58.7414 1.79163 58.7414H36.8014C37.3276 58.7414 37.7506 58.3684 37.7506 57.9054V56.2939C37.7506 56.7569 37.3276 57.1295 36.8014 57.1295H1.79163C1.26545 57.1295 0.842407 56.7569 0.842407 56.2939Z" fill="#414141"/>
<path d="M12.4514 12.5558L12.0053 36.794H26.5873L26.1405 12.5558H12.4514Z" fill="#606060"/>
<path d="M7.48035 10.9656H31.1124V12.5558H7.48035V10.9656Z" fill="#414141"/>
<path d="M6.67834 9.77557L7.4803 10.9656H31.1123L31.9143 9.77557H6.67834Z" fill="#606060"/>
<path d="M6.67834 0V9.77556H31.9143V0H27.2823V5.98778H25.0463V0H20.4143V5.98778H18.1783V0H13.5463V5.98778H11.3104V0H6.67834Z" fill="#414141"/>
</svg>
