<svg width="48" height="118" viewBox="0 0 48 118" fill="none" xmlns="http://www.w3.org/2000/svg">
<path d="M14.2591 40.9062C14.2591 40.9062 13.2005 41.198 12.9212 42.1941C12.6419 43.1902 14.3767 43.8641 14.3767 43.8641C20.7298 44.3742 26.3599 44.0512 32.7079 43.8641C32.7079 43.8641 34.4431 43.1902 34.1634 42.1941C33.8841 41.198 32.8255 40.9062 32.8255 40.9062H14.2591Z" fill="#8E5A2E"/>
<path d="M14.606 43.8641V48.6012L23.5423 48.7359L32.479 48.6012V43.8641H14.606Z" fill="#B38658"/>
<path d="M18.3403 48.2672C17.0532 48.2691 15.9008 48.2852 15.2711 48.3293C13.2559 48.4703 12.8704 49.702 12.8704 49.702V51.3293C20.7383 52.709 26.352 51.9383 34.2141 51.3293V49.702C34.2141 49.702 33.8286 48.4703 31.8133 48.3293C30.2715 48.2223 25.6532 48.2781 23.5422 48.3109C22.2938 48.2922 20.2043 48.2641 18.3403 48.2672Z" fill="#8E5A2E"/>
<path d="M12.8708 51.3293C9.6036 52.1672 8.32391 53.7512 8.32391 53.7512H38.7606C38.7606 53.7512 37.4809 52.1672 34.2141 51.3293H12.8708Z" fill="#B38658"/>
<path d="M13.6712 87.0672L9.19775 91.234C19.1306 93.1551 27.9536 91.9359 37.8872 91.234L33.4138 87.0672H13.6712Z" fill="#8E5A2E"/>
<path d="M9.19775 91.234V95.1652C9.19775 95.1652 4.63134 102.464 0.360641 105.88C0.360641 105.88 -1.98467 108.525 5.28642 110.698H41.7981C49.0692 108.525 46.7243 105.88 46.7243 105.88C42.4536 102.464 37.8872 95.1652 37.8872 95.1652V91.234H9.19775Z" fill="#B38658"/>
<path d="M0.59111 105.689C0.514547 105.753 0.437203 105.818 0.360641 105.88C0.360641 105.88 -1.98467 108.525 5.28642 110.698H41.7981C49.0692 108.525 46.7243 105.88 46.7243 105.88C46.6474 105.818 46.5704 105.753 46.4935 105.689C44.5509 106.501 38.7966 108.129 23.5423 108.446C8.28799 108.129 2.53369 106.501 0.59111 105.689Z" fill="#8E5A2E"/>
<path d="M2.18563 110.249H44.8993C45.5411 110.249 46.0579 110.766 46.0579 111.408V114.563C46.0579 115.205 45.5411 115.721 44.8993 115.721H2.18563C1.54384 115.721 1.02704 115.205 1.02704 114.563V111.408C1.02704 110.766 1.54384 110.249 2.18563 110.249Z" fill="#B38658"/>
<path d="M1.02704 114.563V116.797C1.02704 117.439 1.54384 117.956 2.18563 117.956H44.8993C45.5411 117.956 46.0575 117.439 46.0575 116.797V114.563C46.0575 115.205 45.5411 115.721 44.8993 115.721H2.18563C1.54384 115.721 1.02704 115.205 1.02704 114.563Z" fill="#8E5A2E"/>
<path d="M8.32391 53.7512C8.8911 55.8691 16.4595 56.6422 16.4595 56.6422C21.7591 57.3941 25.347 56.9512 30.6251 56.6422C30.6251 56.6422 38.1934 55.8691 38.7606 53.7512H8.32391Z" fill="#8E5A2E"/>
<path d="M16.8551 56.6422C16.8551 67.0691 13.6711 87.0672 13.6711 87.0672C14.47 87.5531 23.5422 87.5152 23.5422 87.5152C23.5422 87.5152 32.6145 87.5531 33.4137 87.0672C33.4137 87.0672 30.2293 67.0691 30.2293 56.6422H16.8551Z" fill="#B38658"/>
<path d="M9.37585 23.709L14.2591 40.9063H32.8255L37.7087 23.709H9.37585Z" fill="#B38658"/>
<path d="M22.8665 19.3891L22.8505 19.441L17.7434 19.6352L15.3317 20.5172L14.6434 22.9121H32.4415L31.7528 20.5172L29.3411 19.6352L24.2344 19.441L24.2177 19.3891L23.5423 19.4141L22.8665 19.3891Z" fill="#B38658"/>
<path d="M23.3399 22.0191V22.0203C10.3067 22.0543 9.37585 23.7102 9.37585 23.7102H37.7087C37.7087 23.7102 36.7782 22.0543 23.7446 22.0203V22.0191C23.6762 22.0191 23.6102 22.0191 23.5423 22.0191C23.4743 22.0191 23.4083 22.0191 23.3399 22.0191Z" fill="#8E5A2E"/>
<path d="M23.5423 0L19.338 3.76719V7.36523L14.1818 6.5293V15.1641L19.1146 14.241L17.7439 19.6352H29.3411L27.97 14.241L32.9029 15.1641V6.5293L27.7466 7.36523V3.76719L23.5423 0Z" fill="#8E5A2E"/>
</svg>
