<svg width="48" height="104" viewBox="0 0 48 104" fill="none" xmlns="http://www.w3.org/2000/svg">
<path d="M14.2591 35.9982C14.2591 35.9982 13.2005 36.2553 12.9212 37.1319C12.6419 38.0081 14.3767 38.6014 14.3767 38.6014C20.7298 39.0497 26.3599 38.765 32.7079 38.6014C32.7079 38.6014 34.4431 38.0081 34.1634 37.1319C33.8841 36.2553 32.8255 35.9982 32.8255 35.9982H14.2591Z" fill="#414141"/>
<path d="M14.606 38.6014V42.7694L23.5423 42.8887L32.4786 42.7694V38.6014H14.606Z" fill="#606060"/>
<path d="M18.3403 42.4758C17.0532 42.4775 15.9008 42.492 15.2711 42.5305C13.2559 42.6539 12.8704 43.7381 12.8704 43.7381V45.1701C20.7383 46.3849 26.352 45.7057 34.2141 45.1701V43.7381C34.2141 43.7381 33.8286 42.6539 31.8133 42.5305C30.2715 42.4359 25.6532 42.4858 23.5422 42.5143C22.2938 42.4975 20.204 42.4734 18.3403 42.4758Z" fill="#414141"/>
<path d="M12.8708 45.1701C9.6036 45.9078 8.32391 47.3021 8.32391 47.3021H38.7606C38.7606 47.3021 37.4809 45.9078 34.2141 45.1701H12.8708Z" fill="#606060"/>
<path d="M13.6708 76.6195L9.19775 80.2869C19.1306 81.9775 27.9536 80.9046 37.8872 80.2869L33.4138 76.6195H13.6708Z" fill="#414141"/>
<path d="M9.19775 80.2869V83.7454C9.19775 83.7454 4.63134 90.1687 0.360641 93.1748C0.360641 93.1748 -1.98467 95.503 5.28642 97.4153H41.7981C49.0692 95.503 46.7243 93.1748 46.7243 93.1748C42.4536 90.1687 37.8872 83.7454 37.8872 83.7454V80.2869H9.19775Z" fill="#606060"/>
<path d="M0.59111 93.0071C0.514547 93.0634 0.437203 93.1208 0.360641 93.1748C0.360641 93.1748 -1.98467 95.503 5.28642 97.4153H41.7981C49.0692 95.503 46.7243 93.1748 46.7243 93.1748C46.6474 93.1208 46.5704 93.0634 46.4935 93.0071C44.5509 93.7217 38.7966 95.1541 23.5423 95.4329C8.28799 95.1541 2.53369 93.7217 0.59111 93.0071Z" fill="#414141"/>
<path d="M2.18563 97.02H44.8993C45.5411 97.02 46.0579 97.4748 46.0579 98.0396V100.816C46.0579 101.381 45.5411 101.836 44.8993 101.836H2.18563C1.54384 101.836 1.02704 101.381 1.02704 100.816V98.0396C1.02704 97.4748 1.54384 97.02 2.18563 97.02Z" fill="#626262"/>
<path d="M1.02704 100.816V102.782C1.02704 103.347 1.54384 103.802 2.18563 103.802H44.8993C45.5411 103.802 46.0575 103.347 46.0575 102.782V100.816C46.0575 101.381 45.5411 101.836 44.8993 101.836H2.18563C1.54384 101.836 1.02704 101.381 1.02704 100.816Z" fill="#414141"/>
<path d="M8.32391 47.302C8.8911 49.1652 16.4595 49.8458 16.4595 49.8458C21.7591 50.5079 25.347 50.1177 30.6251 49.8458C30.6251 49.8458 38.1934 49.1652 38.7606 47.302H8.32391Z" fill="#414141"/>
<path d="M16.8552 49.8458C16.8552 59.0212 13.6708 76.6195 13.6708 76.6195C14.47 77.0478 23.5423 77.0137 23.5423 77.0137C23.5423 77.0137 32.6145 77.0478 33.4137 76.6195C33.4137 76.6195 30.2294 59.0212 30.2294 49.8458H16.8552Z" fill="#606060"/>
<path d="M9.37585 20.8649L14.2591 35.9982H32.8255L37.7087 20.8649H9.37585Z" fill="#606060"/>
<path d="M22.8665 17.0624L22.8501 17.1081L17.7434 17.2789L15.3317 18.0558L14.6434 20.1637H32.4415L31.7528 18.0558L29.3411 17.2789L24.2344 17.1081L24.2177 17.0624L23.5423 17.0854L22.8665 17.0624Z" fill="#606060"/>
<path d="M23.3399 19.3768V19.3779C10.3067 19.4078 9.37585 20.8649 9.37585 20.8649H37.7087C37.7087 20.8649 36.7782 19.4078 23.7446 19.3779V19.3768C23.6762 19.3768 23.6102 19.3768 23.5423 19.3768C23.4743 19.3768 23.4083 19.3768 23.3399 19.3768Z" fill="#414141"/>
<path d="M23.5423 0L19.338 3.31581V6.48209L14.1818 5.74647V13.3444L19.1146 12.5331L17.7439 17.2789H29.3411L27.97 12.5331L32.9029 13.3444V5.74647L27.7466 6.48209V3.31581L23.5423 0Z" fill="#414141"/>
</svg>
