<svg width="40" height="70" viewBox="0 0 40 70" fill="none" xmlns="http://www.w3.org/2000/svg">
<path d="M5.27026 43.7193L7.70425 49.5345C17.9191 49.8494 25.3531 50.0853 31.7371 49.5345L34.1722 43.7193L19.721 43.1685L5.27026 43.7193Z" fill="#B38658"/>
<path d="M7.70503 49.5345V52.4603C7.70503 52.4603 3.87925 57.8935 0.302301 60.4365C0.302301 60.4365 -1.66293 62.4064 4.42808 64.0236H35.0132C41.1043 62.4064 39.1402 60.4365 39.1402 60.4365C35.5621 57.8935 31.7371 52.4603 31.7371 52.4603V49.5345H7.70503Z" fill="#B38658"/>
<path d="M0.495269 60.2943C0.431207 60.3423 0.366363 60.3915 0.302301 60.4365C0.302301 60.4365 -1.66293 62.4064 4.42808 64.0236H35.0132C41.1043 62.4064 39.1402 60.4365 39.1402 60.4365C39.0753 60.3915 39.0113 60.3423 38.9472 60.2943C37.3191 60.8994 32.4992 62.1103 19.7211 62.3462C6.94332 62.1103 2.12222 60.8994 0.495269 60.2943Z" fill="#8E5A2E"/>
<path d="M1.52537 63.6896H37.3051C37.8433 63.6896 38.2761 64.0744 38.2761 64.5513V66.9005C38.2761 67.3783 37.8433 67.7623 37.3051 67.7623H1.52537C0.987085 67.7623 0.555054 67.3783 0.555054 66.9005V64.5513C0.555054 64.0744 0.987085 63.6896 1.52537 63.6896Z" fill="#B38658"/>
<path d="M0.555054 66.9005V68.5634C0.555054 69.0416 0.987085 69.4263 1.52537 69.4263H37.3051C37.8433 69.4263 38.2761 69.0416 38.2761 68.5634V66.9005C38.2761 67.3783 37.8433 67.7623 37.3051 67.7623H1.52537C0.987085 67.7623 0.555054 67.3783 0.555054 66.9005Z" fill="#8E5A2E"/>
<path d="M8.7793 4.2486C8.7793 4.2486 9.70313 1.73845 9.70313 0.707589C9.70313 -0.323661 16.3262 0.0763387 16.3262 0.0763387C16.3262 0.0763387 17.7813 4.44353 17.5762 4.41032C17.3723 4.37829 8.7793 4.2486 8.7793 4.2486Z" fill="#8E5A2E"/>
<path d="M5.27031 43.7193L4.39219 42.0814C4.39219 42.0814 10.6891 26.4455 5.09023 13.2263L5.57305 7.58141C5.57305 7.58141 2.6832 3.48531 5.49609 3.81031C8.4043 4.14625 18.8832 3.58336 18.8711 3.5025L30.7523 4.96539C30.7523 4.96539 33.2441 3.83649 35.3934 5.05758C37.5422 6.27828 34.5121 10.3064 34.5121 10.3064C34.5121 10.3064 35.9992 12.0545 35.3172 14.3904C34.6344 16.7275 32.1563 15.7384 32.1563 15.7384C32.1563 15.7384 24.1273 14.5443 22.5223 20.7134C22.5223 20.7134 27.7211 24.1916 28.5961 26.2396C29.4711 28.2884 33.207 30.6045 33.8414 32.7713C34.4762 34.9384 34.2313 39.1884 34.2313 39.1884C34.2313 39.1884 36.4242 41.5326 34.1723 43.7193H5.27031Z" fill="#B38658"/>
<path d="M5.42301 9.3353L5.0902 13.2263C10.689 26.4455 4.39215 42.0814 4.39215 42.0814L5.27028 43.7193H7.0152C8.45114 40.3802 10.2843 34.2654 10.4664 24.5603C10.6011 17.3134 8.15934 12.4724 5.42301 9.3353Z" fill="#8E5A2E"/>
<path d="M5.24801 3.79233C2.86012 3.73726 5.57301 7.5814 5.57301 7.5814C5.57301 7.5814 8.6691 9.12554 11.5031 8.38257C11.5031 8.38257 11.2414 5.92358 7.10817 3.90054C6.46012 3.88452 5.90035 3.8564 5.49606 3.8103C5.40817 3.79937 5.32613 3.79429 5.24801 3.79233Z" fill="#8E5A2E"/>
<path d="M11.5031 8.38256C11.5031 8.38256 9.61637 5.75951 6.26129 5.14154C6.26129 5.14154 7.62028 8.18138 11.5031 8.38256Z" fill="#B38658"/>
<path d="M13.8801 5.73257L19.8543 5.8275C19.8543 5.8275 18.7133 7.84351 16.5101 7.96031C14.3082 8.07632 13.8801 5.73257 13.8801 5.73257Z" fill="#8E5A2E"/>
<path d="M28.3312 13.2955C19.1203 13.4185 17.682 21.5505 17.682 21.5505C17.682 21.5505 24.957 24.9076 27.623 32.3744C29.4531 37.5005 27.5121 41.6314 26.114 43.7193H34.1722C36.4242 41.5326 34.2312 39.1884 34.2312 39.1884C34.2312 39.1884 34.4761 34.9396 33.8414 32.7712C33.207 30.6044 29.4711 28.2884 28.5961 26.2396C27.7211 24.1915 22.5222 20.7134 22.5222 20.7134C24.1273 14.5443 32.1562 15.7384 32.1562 15.7384C32.1562 15.7384 34.5883 16.7076 35.2961 14.4513C32.5863 13.6044 30.2832 13.2693 28.3312 13.2955Z" fill="#8E5A2E"/>
<path d="M33.3761 7.3986C33.3761 7.3986 34.1281 6.8404 34.0703 8.02829C34.0121 9.2154 33.0562 8.47439 33.3761 7.3986Z" fill="#8E5A2E"/>
<path d="M7.70508 52.4603H31.7371V49.5345H7.70508V52.4603Z" fill="#8E5A2E"/>
</svg>
