<svg width="43" height="81" viewBox="0 0 43 81" fill="none" xmlns="http://www.w3.org/2000/svg">
<path d="M15.2693 27.4072C15.2693 36.0707 12.3455 55.6363 12.3455 55.6363C13.0791 56.0405 21.4095 56.0082 21.4095 56.0082C21.4095 56.0082 29.7396 56.0405 30.4728 55.6363C30.4728 55.6363 27.5498 36.0707 27.5498 27.4072H15.2693Z" fill="#606060"/>
<path d="M12.4325 55.6628L8.36456 59.1618C17.3974 60.7747 25.4208 59.7513 34.4548 59.1618L30.3868 55.6628H12.4325Z" fill="#414141"/>
<path d="M8.36417 59.1618V62.3071C8.36417 62.3071 4.21183 68.1481 0.327842 70.8823C0.327842 70.8823 -1.80458 72.9991 4.80753 74.7381H38.0107C44.6235 72.9991 42.4907 70.8823 42.4907 70.8823C38.6067 68.1481 34.4548 62.3071 34.4548 62.3071V59.1618H8.36417Z" fill="#606060"/>
<path d="M0.537608 70.7296C0.467686 70.7805 0.397764 70.8331 0.327842 70.8823C0.327842 70.8823 -1.80458 72.9991 4.80753 74.7381H38.0107C44.6235 72.9991 42.4907 70.8823 42.4907 70.8823C42.4208 70.8331 42.3509 70.7805 42.2806 70.7296C40.5146 71.3793 35.2817 72.6818 21.4095 72.9355C7.53722 72.6818 2.30401 71.3793 0.537608 70.7296Z" fill="#414141"/>
<path d="M1.9876 74.3789H40.8306C41.4145 74.3789 41.8849 74.7924 41.8849 75.306V77.8308C41.8849 78.3444 41.4145 78.7579 40.8306 78.7579H1.9876C1.404 78.7579 0.934082 78.3444 0.934082 77.8308V75.306C0.934082 74.7924 1.404 74.3789 1.9876 74.3789Z" fill="#626262"/>
<path d="M0.934082 77.8309V79.619C0.934082 80.1326 1.404 80.5461 1.9876 80.5461H40.8306C41.4145 80.5461 41.8849 80.1326 41.8849 79.619V77.8309C41.8849 78.3444 41.4145 78.758 40.8306 78.758H1.9876C1.404 78.758 0.934082 78.3444 0.934082 77.8309Z" fill="#414141"/>
<path d="M10.1571 24.9353C8.51025 25.5537 9.48173 27.4072 9.48173 27.4072H33.3368C33.3368 27.4072 34.3087 25.5537 32.6618 24.9353H10.1571Z" fill="#414141"/>
<path d="M13.199 19.4628H29.6197V24.4238H13.199V19.4628Z" fill="#606060"/>
<path d="M13.7544 22.3407C12.8661 22.3407 12.1447 23.7053 12.1447 23.7053H30.6736C30.6736 23.7053 29.9529 22.3407 29.0646 22.3407H13.7544Z" fill="#414141"/>
<path d="M12.1126 23.5706C11.0337 23.5706 10.1571 24.9353 10.1571 24.9353H32.6618C32.6618 24.9353 31.7848 23.5706 30.7067 23.5706H12.1126Z" fill="#606060"/>
<path d="M14.6376 17.6588H28.1805V19.4628H14.6376V17.6588Z" fill="#414141"/>
<path d="M16.2958 0C15.4622 0 14.57 1.90541 13.2708 1.70466C11.972 1.50391 11.447 -0.4785 10.6974 0.306281C9.94775 1.09209 7.65283 2.61216 7.65283 2.61216V3.59322C17.4923 4.75303 25.0317 4.05866 35.1657 3.59322V2.61216C35.1657 2.61216 32.8708 1.09209 32.1216 0.306281C31.3716 -0.4785 30.8466 1.50391 29.5478 1.70466C28.2485 1.90541 27.3567 0 26.5228 0C25.6888 0 24.92 1.79884 24.2712 1.75828C23.6224 1.71806 22.072 0.100375 21.4095 0.100375C20.7466 0.100375 19.4142 1.71806 18.7653 1.75828C18.1161 1.79884 17.1294 0 16.2958 0Z" fill="#414141"/>
<path d="M7.65283 3.59322C12.4173 5.18512 14.6376 17.7296 14.6376 17.7296H28.1806C28.1806 17.7296 30.4017 5.18512 35.1657 3.59322H7.65283Z" fill="#606060"/>
</svg>
