<svg width="36" height="69" viewBox="0 0 36 69" fill="none" xmlns="http://www.w3.org/2000/svg">
<path d="M10.1775 48.4234L6.84741 50.8516C14.2416 51.4889 20.8095 51.0844 28.2037 50.8516L24.8736 48.4234C19.9748 48.4234 15.0755 48.4234 10.1775 48.4234Z" fill="#414141"/>
<path d="M6.84741 50.8516V53.4263C6.84741 53.4263 3.44741 58.2075 0.268503 60.4454C0.268503 60.4454 -1.47759 62.1785 3.93569 63.602H31.1154C36.5275 62.1785 34.7826 60.4454 34.7826 60.4454C31.6025 58.2075 28.2037 53.4263 28.2037 53.4263V50.8516H6.84741Z" fill="#606060"/>
<path d="M0.440378 60.3206C0.383737 60.3625 0.325534 60.4051 0.268503 60.4454C0.268503 60.4454 -1.47759 62.1785 3.93569 63.602H31.1154C36.5275 62.1785 34.7826 60.4454 34.7826 60.4454C34.7248 60.4051 34.6677 60.3625 34.6107 60.3206C33.1646 60.8527 28.8806 61.9187 17.5255 62.1266C6.17046 61.9187 1.88647 60.8527 0.440378 60.3206Z" fill="#414141"/>
<path d="M1.62748 63.3078H33.4236C33.9017 63.3078 34.2857 63.6464 34.2857 64.0668V66.1334C34.2857 66.5541 33.9017 66.8924 33.4236 66.8924H1.62748C1.14974 66.8924 0.764587 66.5541 0.764587 66.1334V64.0668C0.764587 63.6464 1.14974 63.3078 1.62748 63.3078Z" fill="#626262"/>
<path d="M0.764587 66.1334V67.5974C0.764587 68.0178 1.14974 68.3561 1.62748 68.3561H33.4236C33.9017 68.3561 34.2857 68.0178 34.2857 67.5974V66.1334C34.2857 66.5541 33.9017 66.8924 33.4236 66.8924H1.62748C1.14974 66.8924 0.764587 66.5541 0.764587 66.1334Z" fill="#414141"/>
<path d="M11.2607 32.7034C11.2607 32.7034 11.3947 43.1575 10.1775 48.4234H24.8736C23.6564 43.1575 23.7904 32.7034 23.7904 32.7034H11.2607Z" fill="#606060"/>
<path d="M11.4454 25.0494H23.6044V28.2542H11.4454V25.0494Z" fill="#606060"/>
<path d="M8.46772 27.8434H26.5826C27.2724 27.8434 27.8275 28.3322 27.8275 28.9389C27.8275 29.546 27.2724 30.0348 26.5826 30.0348H8.46772C7.77866 30.0348 7.22241 29.546 7.22241 28.9389C7.22241 28.3322 7.77866 27.8434 8.46772 27.8434Z" fill="#414141"/>
<path d="M9.06539 30.0128C7.3607 30.0056 4.24156 30.0829 3.85758 31.2049C3.47359 32.3266 5.29664 32.7033 5.29664 32.7033H29.7545C29.7545 32.7033 31.5775 32.3266 31.1935 31.2049C30.8095 30.0829 27.6904 30.0056 25.9857 30.0128H9.06539Z" fill="#606060"/>
<path d="M14.0056 3.43716C14.0056 3.43716 6.1654 12.1698 5.91071 16.9734C5.65641 21.7769 9.85055 23.0134 9.85055 23.0134H25.1998C25.1998 23.0134 29.3947 21.7769 29.1396 16.9734C29.0396 15.0899 27.7705 12.605 26.2685 10.2768L16.1197 17.4814L13.7677 14.9157L24.2927 7.44323C22.5677 5.13495 21.0447 3.43716 21.0447 3.43716H14.0056Z" fill="#606060"/>
<path d="M8.46772 22.858H26.5826C27.2724 22.858 27.8275 23.3468 27.8275 23.9539C27.8275 24.5609 27.2724 25.0494 26.5826 25.0494H8.46772C7.77866 25.0494 7.22241 24.5609 7.22241 23.9539C7.22241 23.3468 7.77866 22.858 8.46772 22.858Z" fill="#414141"/>
<path d="M13.6146 0H21.4365C22.5646 0 23.4724 0.799219 23.4724 1.79162C23.4724 2.78437 22.5646 3.58325 21.4365 3.58325H13.6146C12.4865 3.58325 11.5787 2.78437 11.5787 1.79162C11.5787 0.799219 12.4865 0 13.6146 0Z" fill="#414141"/>
<path d="M8.46772 32.5889H26.5826C27.2724 32.5889 27.8275 33.0777 27.8275 33.6844C27.8275 34.2915 27.2724 34.7799 26.5826 34.7799H8.46772C7.77866 34.7799 7.22241 34.2915 7.22241 33.6844C7.22241 33.0777 7.77866 32.5889 8.46772 32.5889Z" fill="#414141"/>
</svg>
