<svg width="40" height="62" viewBox="0 0 40 62" fill="none" xmlns="http://www.w3.org/2000/svg">
<path d="M5.27026 38.4731L7.70425 43.5901C17.9191 43.8672 25.3531 44.0745 31.7371 43.5901L34.1722 38.4731L19.721 37.988L5.27026 38.4731Z" fill="#606060"/>
<path d="M7.70425 43.5901V46.1648C7.70425 46.1648 3.87925 50.946 0.302301 53.1839C0.302301 53.1839 -1.66293 54.917 4.42808 56.3405H35.0132C41.1043 54.917 39.1402 53.1839 39.1402 53.1839C35.5621 50.946 31.7371 46.1648 31.7371 46.1648V43.5901H7.70425Z" fill="#606060"/>
<path d="M0.495269 53.0591C0.431207 53.101 0.366363 53.1436 0.302301 53.1838C0.302301 53.1838 -1.66293 54.917 4.42808 56.3405H35.0132C41.1043 54.917 39.1402 53.1838 39.1402 53.1838C39.0753 53.1436 39.0113 53.101 38.9472 53.0591C37.3191 53.5912 32.4992 54.6572 19.7211 54.8651C6.94332 54.6572 2.12222 53.5912 0.495269 53.0591Z" fill="#414141"/>
<path d="M1.52537 56.0463H37.3051C37.8433 56.0463 38.2761 56.3849 38.2761 56.8053V58.8719C38.2761 59.2926 37.8433 59.6309 37.3051 59.6309H1.52537C0.987085 59.6309 0.555054 59.2926 0.555054 58.8719V56.8053C0.555054 56.3849 0.987085 56.0463 1.52537 56.0463Z" fill="#626262"/>
<path d="M0.555054 58.8719V60.3359C0.555054 60.7563 0.987085 61.0946 1.52537 61.0946H37.3051C37.8433 61.0946 38.2761 60.7563 38.2761 60.3359V58.8719C38.2761 59.2926 37.8433 59.6309 37.3051 59.6309H1.52537C0.987085 59.6309 0.555054 59.2926 0.555054 58.8719Z" fill="#414141"/>
<path d="M8.7793 3.73849C8.7793 3.73849 9.70313 1.5292 9.70313 0.622048C9.70313 -0.284765 16.3262 0.0672354 16.3262 0.0672354C16.3262 0.0672354 17.7813 3.90967 17.5762 3.88114C17.3723 3.85227 8.7793 3.73849 8.7793 3.73849Z" fill="#414141"/>
<path d="M5.27028 38.4731L4.39216 37.0317C4.39216 37.0317 10.689 23.2714 5.09021 11.6389L5.57302 6.67139C5.57302 6.67139 2.682 3.06682 5.49607 3.35248C8.40427 3.6481 18.8832 3.15276 18.8711 3.0816L30.7523 4.36929C30.7523 4.36929 33.2441 3.37585 35.3933 4.45007C37.5422 5.52429 34.5121 9.06973 34.5121 9.06973C34.5121 9.06973 35.9992 10.6077 35.3172 12.6636C34.6343 14.7196 32.1562 13.8492 32.1562 13.8492C32.1562 13.8492 24.1273 12.7987 22.5222 18.2276C22.5222 18.2276 27.7211 21.2876 28.5961 23.0906C29.4711 24.8932 33.207 26.9313 33.8414 28.8384C34.4761 30.7459 34.2312 34.4856 34.2312 34.4856C34.2312 34.4856 36.4242 36.5484 34.1722 38.4731H5.27028Z" fill="#606060"/>
<path d="M5.42301 8.21481L5.0902 11.6389C10.689 23.2714 4.39215 37.0317 4.39215 37.0317L5.27028 38.4731H7.0152C8.45114 35.5343 10.2843 30.1533 10.4664 21.6128C10.6011 15.2349 8.15934 10.9751 5.42301 8.21481Z" fill="#414141"/>
<path d="M5.24801 3.33666C2.86012 3.28853 5.57301 6.67138 5.57301 6.67138C5.57301 6.67138 8.6691 8.03022 11.5031 7.37607C11.5031 7.37607 11.2414 5.21216 7.10817 3.43188C6.46012 3.41847 5.90035 3.39372 5.49606 3.35247C5.40817 3.34353 5.32535 3.33838 5.24801 3.33666Z" fill="#414141"/>
<path d="M11.5031 7.37606C11.5031 7.37606 9.61637 5.06743 6.26129 4.52431C6.26129 4.52431 7.62028 7.19971 11.5031 7.37606Z" fill="#606060"/>
<path d="M13.8801 5.0444L19.8543 5.12828C19.8543 5.12828 18.7133 6.90237 16.5101 7.00481C14.307 7.10725 13.8801 5.0444 13.8801 5.0444Z" fill="#414141"/>
<path d="M28.3312 11.6994C19.1203 11.8077 17.682 18.9639 17.682 18.9639C17.682 18.9639 24.957 21.9184 27.623 28.4895C29.4531 32.9995 27.5121 36.6357 26.114 38.4731H34.1722C36.4242 36.5484 34.2312 34.4856 34.2312 34.4856C34.2312 34.4856 34.4761 30.7459 33.8414 28.8384C33.207 26.9313 29.4711 24.8932 28.5961 23.0906C27.7211 21.288 22.5222 18.2276 22.5222 18.2276C24.1273 12.7987 32.1562 13.8492 32.1562 13.8492C32.1562 13.8492 34.5883 14.7021 35.2961 12.7169C32.5863 11.9717 30.2832 11.6764 28.3312 11.6994Z" fill="#414141"/>
<path d="M33.3761 6.51017C33.3761 6.51017 34.1281 6.01929 34.0703 7.06429C34.0121 8.10929 33.0562 7.4572 33.3761 6.51017Z" fill="#414141"/>
<path d="M7.70428 46.1648H31.7371V43.5901H7.70428V46.1648Z" fill="#414141"/>
</svg>
