<svg width="36" height="48" viewBox="0 0 36 48" fill="none" xmlns="http://www.w3.org/2000/svg">
<path d="M10.1768 27.9995L6.84668 30.4277C14.2408 31.065 20.8088 30.6604 28.2037 30.4277L24.8736 27.9995C19.9748 27.9995 15.0756 27.9995 10.1768 27.9995Z" fill="#414141"/>
<path d="M6.84663 30.4277V33.0024C6.84663 33.0024 3.44741 37.7836 0.268503 40.0215C0.268503 40.0215 -1.47759 41.7546 3.93569 43.1781H31.1146C36.5275 41.7546 34.7814 40.0215 34.7814 40.0215C31.6025 37.7836 28.2037 33.0024 28.2037 33.0024V30.4277H6.84663Z" fill="#606060"/>
<path d="M0.439597 39.8967C0.382565 39.9386 0.325534 39.9812 0.268503 40.0214C0.268503 40.0214 -1.47759 41.7546 3.93569 43.1781H31.1146C36.5275 41.7546 34.7814 40.0214 34.7814 40.0214C34.7248 39.9812 34.6665 39.9386 34.6095 39.8967C33.1634 40.4288 28.8806 41.4948 17.5248 41.7027C6.16967 41.4948 1.88569 40.4288 0.439597 39.8967Z" fill="#414141"/>
<path d="M1.62676 42.8839H33.4225C33.9006 42.8839 34.2857 43.2225 34.2857 43.6429V45.7095C34.2857 46.1302 33.9006 46.4685 33.4225 46.4685H1.62676C1.14863 46.4685 0.764648 46.1302 0.764648 45.7095V43.6429C0.764648 43.2225 1.14863 42.8839 1.62676 42.8839Z" fill="#626262"/>
<path d="M0.764648 45.7095V47.1735C0.764648 47.5939 1.14863 47.9322 1.62676 47.9322H33.4225C33.9006 47.9322 34.2857 47.5939 34.2857 47.1735V45.7095C34.2857 46.1302 33.9006 46.4685 33.4225 46.4685H1.62676C1.14863 46.4685 0.764648 46.1302 0.764648 45.7095Z" fill="#414141"/>
<path d="M10.6936 16.9373C10.6936 16.9373 11.5275 23.0976 10.1768 27.9995H24.8725C23.5217 23.0976 24.3564 16.9373 24.3564 16.9373H10.6936Z" fill="#606060"/>
<path d="M26.5064 7.90419C26.5064 12.2691 22.4857 15.808 17.5248 15.808C12.5646 15.808 8.54352 12.2691 8.54352 7.90419C8.54352 5.80766 9.48961 3.79741 11.1736 2.31516C12.8588 0.832906 15.1427 0 17.5248 0C19.9064 0 22.1916 0.832906 23.8755 2.31516C25.5607 3.79741 26.5064 5.80766 26.5064 7.90419Z" fill="#606060"/>
<path d="M9.85757 14.5626H25.1927C25.9396 14.5626 26.5416 15.092 26.5416 15.7499C26.5416 16.4079 25.9396 16.9373 25.1927 16.9373H9.85757C9.10952 16.9373 8.50757 16.4079 8.50757 15.7499C8.50757 15.092 9.10952 14.5626 9.85757 14.5626Z" fill="#414141"/>
</svg>
