<svg width="39" height="67" viewBox="0 0 39 67" fill="none" xmlns="http://www.w3.org/2000/svg">
<path d="M11.2053 41.8098L7.53851 44.8488C15.6803 45.6457 22.9123 45.1398 31.0545 44.8488L27.3873 41.8098C21.9936 41.8098 16.5995 41.8098 11.2053 41.8098Z" fill="#8E5A2E"/>
<path d="M7.53852 44.8488V48.0699C7.53852 48.0699 3.79633 54.0527 0.295551 56.8527C0.295551 56.8527 -1.62671 59.0207 4.33344 60.8019H34.2596C40.2194 59.0207 38.2975 56.8527 38.2975 56.8527C34.7963 54.0527 31.0545 48.0699 31.0545 48.0699V44.8488H7.53852Z" fill="#B38658"/>
<path d="M0.484614 56.6957C0.421332 56.7488 0.358442 56.8019 0.295551 56.8527C0.295551 56.8527 -1.62671 59.0207 4.33344 60.8019H34.2596C40.2194 59.0207 38.2975 56.8527 38.2975 56.8527C38.2346 56.8019 38.1713 56.7488 38.1084 56.6957C36.5166 57.3617 31.7995 58.6957 19.2963 58.9558C6.7936 58.6957 2.07641 57.3617 0.484614 56.6957Z" fill="#8E5A2E"/>
<path d="M1.79163 60.434H36.8014C37.3276 60.434 37.7514 60.8578 37.7514 61.384V63.9699C37.7514 64.4957 37.3276 64.9187 36.8014 64.9187H1.79163C1.26545 64.9187 0.842407 64.4957 0.842407 63.9699V61.384C0.842407 60.8578 1.26545 60.434 1.79163 60.434Z" fill="#B38658"/>
<path d="M0.842407 63.9699V65.8008C0.842407 66.3269 1.26545 66.7508 1.79163 66.7508H36.8014C37.3276 66.7508 37.7514 66.3269 37.7514 65.8008V63.9699C37.7514 64.4957 37.3276 64.9187 36.8014 64.9187H1.79163C1.26545 64.9187 0.842407 64.4957 0.842407 63.9699Z" fill="#8E5A2E"/>
<path d="M12.4514 14.2668L12.0053 41.8109H26.5873L26.1405 14.2668H12.4514Z" fill="#B38658"/>
<path d="M7.48035 12.4609H31.1124V14.2668H7.48035V12.4609Z" fill="#8E5A2E"/>
<path d="M6.67834 11.1078L7.4803 12.4597H31.1123L31.9143 11.1078H6.67834Z" fill="#B38658"/>
<path d="M6.67834 0V11.1078H31.9143V0H27.2823V6.80391H25.0463V0H20.4143V6.80391H18.1783V0H13.5463V6.80391H11.3104V0H6.67834Z" fill="#8E5A2E"/>
</svg>
