<svg width="36" height="78" viewBox="0 0 36 78" fill="none" xmlns="http://www.w3.org/2000/svg">
<path d="M10.1775 55.0262L6.84741 57.7852C14.2416 58.509 20.8095 58.05 28.2037 57.7852L24.8736 55.0262C19.9748 55.0262 15.0755 55.0262 10.1775 55.0262Z" fill="#8E5A2E"/>
<path d="M6.84741 57.7852V60.7109C6.84741 60.7109 3.44741 66.1441 0.268503 68.6871C0.268503 68.6871 -1.47759 70.657 3.93569 72.2742H31.1154C36.5275 70.657 34.7826 68.6871 34.7826 68.6871C31.6025 66.1441 28.2037 60.7109 28.2037 60.7109V57.7852H6.84741Z" fill="#B38658"/>
<path d="M0.440378 68.5449C0.383737 68.593 0.325534 68.6422 0.268503 68.6871C0.268503 68.6871 -1.47759 70.657 3.93569 72.2742H31.1154C36.5275 70.657 34.7826 68.6871 34.7826 68.6871C34.7248 68.6422 34.6677 68.593 34.6107 68.5449C33.1646 69.15 28.8806 70.3609 17.5255 70.5969C6.17046 70.3609 1.88647 69.15 0.440378 68.5449Z" fill="#8E5A2E"/>
<path d="M1.62748 71.9402H33.4236C33.9017 71.9402 34.2857 72.325 34.2857 72.802V75.1512C34.2857 75.6289 33.9017 76.0129 33.4236 76.0129H1.62748C1.14974 76.0129 0.764587 75.6289 0.764587 75.1512V72.802C0.764587 72.325 1.14974 71.9402 1.62748 71.9402Z" fill="#B38658"/>
<path d="M0.764587 75.1512V76.8141C0.764587 77.2922 1.14974 77.677 1.62748 77.677H33.4236C33.9017 77.677 34.2857 77.2922 34.2857 76.8141V75.1512C34.2857 75.6289 33.9017 76.0129 33.4236 76.0129H1.62748C1.14974 76.0129 0.764587 75.6289 0.764587 75.1512Z" fill="#8E5A2E"/>
<path d="M11.2607 37.1621C11.2607 37.1621 11.3947 49.0422 10.1775 55.0262H24.8736C23.6564 49.0422 23.7904 37.1621 23.7904 37.1621H11.2607Z" fill="#B38658"/>
<path d="M11.4467 28.4652H23.6045V32.1059H11.4467V28.4652Z" fill="#B38658"/>
<path d="M8.46772 31.6402H26.5826C27.2724 31.6402 27.8275 32.1949 27.8275 32.8852C27.8275 33.5742 27.2724 34.1301 26.5826 34.1301H8.46772C7.77866 34.1301 7.22241 33.5742 7.22241 32.8852C7.22241 32.1949 7.77866 31.6402 8.46772 31.6402Z" fill="#8E5A2E"/>
<path d="M9.06539 34.1051C7.3607 34.0969 4.24156 34.1852 3.85758 35.459C3.47359 36.734 5.29664 37.1621 5.29664 37.1621H29.7545C29.7545 37.1621 31.5775 36.734 31.1935 35.459C30.8095 34.1852 27.6904 34.0969 25.9857 34.1051H9.06539Z" fill="#B38658"/>
<path d="M14.0056 3.90508C14.0056 3.90508 6.1654 13.8289 5.91071 19.2871C5.65641 24.7461 9.85055 26.1512 9.85055 26.1512H25.1998C25.1998 26.1512 29.3947 24.7461 29.1396 19.2871C29.0396 17.1469 27.7705 14.323 26.2685 11.677L16.1197 19.8652L13.7677 16.9492L24.2927 8.45703C22.5677 5.83398 21.0447 3.90508 21.0447 3.90508H14.0056Z" fill="#B38658"/>
<path d="M8.46772 25.9742H26.5826C27.2724 25.9742 27.8275 26.5301 27.8275 27.2191C27.8275 27.909 27.2724 28.4652 26.5826 28.4652H8.46772C7.77866 28.4652 7.22241 27.909 7.22241 27.2191C7.22241 26.5301 7.77866 25.9742 8.46772 25.9742Z" fill="#8E5A2E"/>
<path d="M13.6146 0H21.4365C22.5646 0 23.4724 0.908203 23.4724 2.03516C23.4724 3.16289 22.5646 4.07109 21.4365 4.07109H13.6146C12.4865 4.07109 11.5787 3.16289 11.5787 2.03516C11.5787 0.908203 12.4865 0 13.6146 0Z" fill="#8E5A2E"/>
<path d="M8.46772 37.032H26.5826C27.2724 37.032 27.8275 37.5871 27.8275 38.277C27.8275 38.9672 27.2724 39.5219 26.5826 39.5219H8.46772C7.77866 39.5219 7.22241 38.9672 7.22241 38.277C7.22241 37.5871 7.77866 37.032 8.46772 37.032Z" fill="#8E5A2E"/>
</svg>
